<mxfile host="app.diagrams.net" modified="2021-10-30T10:28:59.558Z" agent="5.0 (Windows)" etag="GoEkYsVOpjkw4aJCPJal" version="15.6.2" type="github">
  <diagram id="C5RBs43oDa-KdzZeNtuy" name="Page-1">
    <mxGraphModel dx="1422" dy="758" grid="1" gridSize="10" guides="1" tooltips="1" connect="1" arrows="1" fold="1" page="1" pageScale="1" pageWidth="827" pageHeight="1169" math="0" shadow="0">
      <root>
        <mxCell id="WIyWlLk6GJQsqaUBKTNV-0" />
        <mxCell id="WIyWlLk6GJQsqaUBKTNV-1" parent="WIyWlLk6GJQsqaUBKTNV-0" />
        <mxCell id="vAvfZkCuOQntxyUVGOkL-5" value="" style="edgeStyle=orthogonalEdgeStyle;rounded=0;orthogonalLoop=1;jettySize=auto;html=1;fontSize=16;" edge="1" parent="WIyWlLk6GJQsqaUBKTNV-1" source="WIyWlLk6GJQsqaUBKTNV-3" target="vAvfZkCuOQntxyUVGOkL-1">
          <mxGeometry relative="1" as="geometry" />
        </mxCell>
        <mxCell id="WIyWlLk6GJQsqaUBKTNV-3" value="建築物の制作" style="rounded=0;whiteSpace=wrap;html=1;fontSize=16;glass=0;strokeWidth=1;shadow=0;" parent="WIyWlLk6GJQsqaUBKTNV-1" vertex="1">
          <mxGeometry x="160" y="80" width="160" height="40" as="geometry" />
        </mxCell>
        <mxCell id="vAvfZkCuOQntxyUVGOkL-8" value="" style="edgeStyle=orthogonalEdgeStyle;rounded=0;orthogonalLoop=1;jettySize=auto;html=1;fontSize=16;" edge="1" parent="WIyWlLk6GJQsqaUBKTNV-1" source="vAvfZkCuOQntxyUVGOkL-1" target="vAvfZkCuOQntxyUVGOkL-7">
          <mxGeometry relative="1" as="geometry" />
        </mxCell>
        <mxCell id="vAvfZkCuOQntxyUVGOkL-1" value="応募テキストの作成" style="rounded=0;whiteSpace=wrap;html=1;fontSize=16;glass=0;strokeWidth=1;shadow=0;" vertex="1" parent="WIyWlLk6GJQsqaUBKTNV-1">
          <mxGeometry x="160" y="160" width="160" height="40" as="geometry" />
        </mxCell>
        <mxCell id="vAvfZkCuOQntxyUVGOkL-10" value="" style="edgeStyle=orthogonalEdgeStyle;rounded=0;orthogonalLoop=1;jettySize=auto;html=1;fontSize=16;" edge="1" parent="WIyWlLk6GJQsqaUBKTNV-1" source="vAvfZkCuOQntxyUVGOkL-7" target="vAvfZkCuOQntxyUVGOkL-9">
          <mxGeometry relative="1" as="geometry" />
        </mxCell>
        <mxCell id="vAvfZkCuOQntxyUVGOkL-7" value="応募" style="whiteSpace=wrap;html=1;rounded=0;shadow=0;fontSize=16;strokeWidth=1;glass=0;" vertex="1" parent="WIyWlLk6GJQsqaUBKTNV-1">
          <mxGeometry x="160" y="240" width="160" height="40" as="geometry" />
        </mxCell>
        <mxCell id="vAvfZkCuOQntxyUVGOkL-14" value="" style="edgeStyle=orthogonalEdgeStyle;rounded=0;orthogonalLoop=1;jettySize=auto;html=1;fontSize=16;exitX=0;exitY=0.5;exitDx=0;exitDy=0;" edge="1" parent="WIyWlLk6GJQsqaUBKTNV-1" source="vAvfZkCuOQntxyUVGOkL-9" target="vAvfZkCuOQntxyUVGOkL-11">
          <mxGeometry relative="1" as="geometry" />
        </mxCell>
        <mxCell id="vAvfZkCuOQntxyUVGOkL-15" style="edgeStyle=orthogonalEdgeStyle;rounded=0;orthogonalLoop=1;jettySize=auto;html=1;exitX=0.5;exitY=1;exitDx=0;exitDy=0;entryX=0.5;entryY=0;entryDx=0;entryDy=0;fontSize=16;" edge="1" parent="WIyWlLk6GJQsqaUBKTNV-1" source="vAvfZkCuOQntxyUVGOkL-9" target="vAvfZkCuOQntxyUVGOkL-12">
          <mxGeometry relative="1" as="geometry" />
        </mxCell>
        <mxCell id="vAvfZkCuOQntxyUVGOkL-16" style="edgeStyle=orthogonalEdgeStyle;rounded=0;orthogonalLoop=1;jettySize=auto;html=1;exitX=1;exitY=0.5;exitDx=0;exitDy=0;entryX=0.5;entryY=0;entryDx=0;entryDy=0;fontSize=16;" edge="1" parent="WIyWlLk6GJQsqaUBKTNV-1" source="vAvfZkCuOQntxyUVGOkL-9" target="vAvfZkCuOQntxyUVGOkL-13">
          <mxGeometry relative="1" as="geometry" />
        </mxCell>
        <mxCell id="vAvfZkCuOQntxyUVGOkL-9" value="審査" style="whiteSpace=wrap;html=1;rounded=0;shadow=0;fontSize=16;strokeWidth=1;glass=0;" vertex="1" parent="WIyWlLk6GJQsqaUBKTNV-1">
          <mxGeometry x="160" y="320" width="160" height="40" as="geometry" />
        </mxCell>
        <mxCell id="vAvfZkCuOQntxyUVGOkL-20" style="edgeStyle=orthogonalEdgeStyle;rounded=0;orthogonalLoop=1;jettySize=auto;html=1;exitX=0.5;exitY=1;exitDx=0;exitDy=0;entryX=0.5;entryY=0;entryDx=0;entryDy=0;fontSize=16;" edge="1" parent="WIyWlLk6GJQsqaUBKTNV-1" source="vAvfZkCuOQntxyUVGOkL-12" target="vAvfZkCuOQntxyUVGOkL-19">
          <mxGeometry relative="1" as="geometry" />
        </mxCell>
        <mxCell id="vAvfZkCuOQntxyUVGOkL-22" style="edgeStyle=orthogonalEdgeStyle;rounded=0;orthogonalLoop=1;jettySize=auto;html=1;exitX=0.5;exitY=1;exitDx=0;exitDy=0;entryX=0;entryY=0.5;entryDx=0;entryDy=0;fontSize=16;" edge="1" parent="WIyWlLk6GJQsqaUBKTNV-1" source="vAvfZkCuOQntxyUVGOkL-11" target="vAvfZkCuOQntxyUVGOkL-18">
          <mxGeometry relative="1" as="geometry">
            <Array as="points">
              <mxPoint x="120" y="585" />
            </Array>
          </mxGeometry>
        </mxCell>
        <mxCell id="vAvfZkCuOQntxyUVGOkL-11" value="不受理" style="whiteSpace=wrap;html=1;rounded=1;shadow=0;fontSize=16;strokeWidth=1;glass=0;sketch=0;" vertex="1" parent="WIyWlLk6GJQsqaUBKTNV-1">
          <mxGeometry x="80" y="400" width="80" height="40" as="geometry" />
        </mxCell>
        <mxCell id="vAvfZkCuOQntxyUVGOkL-12" value="受理" style="whiteSpace=wrap;html=1;rounded=1;shadow=0;fontSize=16;strokeWidth=1;glass=0;sketch=0;" vertex="1" parent="WIyWlLk6GJQsqaUBKTNV-1">
          <mxGeometry x="200" y="400" width="80" height="40" as="geometry" />
        </mxCell>
        <mxCell id="vAvfZkCuOQntxyUVGOkL-17" style="edgeStyle=orthogonalEdgeStyle;rounded=0;orthogonalLoop=1;jettySize=auto;html=1;exitX=1;exitY=0.5;exitDx=0;exitDy=0;entryX=1;entryY=0.5;entryDx=0;entryDy=0;fontSize=16;" edge="1" parent="WIyWlLk6GJQsqaUBKTNV-1" source="vAvfZkCuOQntxyUVGOkL-13" target="vAvfZkCuOQntxyUVGOkL-1">
          <mxGeometry relative="1" as="geometry">
            <Array as="points">
              <mxPoint x="420" y="420" />
              <mxPoint x="420" y="180" />
            </Array>
          </mxGeometry>
        </mxCell>
        <mxCell id="vAvfZkCuOQntxyUVGOkL-13" value="修正" style="whiteSpace=wrap;html=1;rounded=1;shadow=0;fontSize=16;strokeWidth=1;glass=0;sketch=0;" vertex="1" parent="WIyWlLk6GJQsqaUBKTNV-1">
          <mxGeometry x="320" y="400" width="80" height="40" as="geometry" />
        </mxCell>
        <mxCell id="vAvfZkCuOQntxyUVGOkL-18" value="&lt;div&gt;終了&lt;/div&gt;" style="whiteSpace=wrap;html=1;rounded=0;shadow=0;fontSize=16;strokeWidth=1;glass=0;" vertex="1" parent="WIyWlLk6GJQsqaUBKTNV-1">
          <mxGeometry x="160" y="565" width="160" height="40" as="geometry" />
        </mxCell>
        <mxCell id="vAvfZkCuOQntxyUVGOkL-21" value="" style="edgeStyle=orthogonalEdgeStyle;rounded=0;orthogonalLoop=1;jettySize=auto;html=1;fontSize=16;" edge="1" parent="WIyWlLk6GJQsqaUBKTNV-1" source="vAvfZkCuOQntxyUVGOkL-19" target="vAvfZkCuOQntxyUVGOkL-18">
          <mxGeometry relative="1" as="geometry" />
        </mxCell>
        <mxCell id="vAvfZkCuOQntxyUVGOkL-19" value="報酬受け取り" style="whiteSpace=wrap;html=1;rounded=0;shadow=0;fontSize=16;strokeWidth=1;glass=0;" vertex="1" parent="WIyWlLk6GJQsqaUBKTNV-1">
          <mxGeometry x="160" y="480" width="160" height="40" as="geometry" />
        </mxCell>
      </root>
    </mxGraphModel>
  </diagram>
</mxfile>
